PathFileType	4	(X/Y/Z)	C:\Users\Basilio\Documents\Thesis Gigler\squatting_fais\c3dfiles\077\SJ_pre4\markers_experimental.trc
DataRate	CameraRate	NumFrames	NumMarkers	Units	OrigDataRate	OrigDataStartFrame	OrigNumFrames
200.000000	200.000000	4	60	mm	200.000000	341	1365
Frame#	Time	FHD			LBHD			RBHD			C7			T10			CLAV			LSHO			LUUPA			LMUPA			LDUPA			LLEP			LMEP			LRAD			LUL			LRFIN			RSHO			RUPA1			RMUPA			RDUPA			RLEP			RMEP			RRAD			RUL			RUFIN			LASI			RASI			USACR			LSACR			RSACR			LTHI1			LTHI2			LTHI3			LTHI4			LLFC			LMFC			LTIB1			LTIB2			LTIB3			LTIB4			LLMAL			LHEE			LMT1			LMT2			LMT5			RTHI			RTHI2			RTHI3			RTHI4			RLFC			RMFC			RTIB1			RTIB2			RTIB3			RTIB4			RLMAL			RMMAL			RHEE			RMT1			RMT2			RMT5			
		X1	Y1	Z1	X2	Y2	Z2	X3	Y3	Z3	X4	Y4	Z4	X5	Y5	Z5	X6	Y6	Z6	X7	Y7	Z7	X8	Y8	Z8	X9	Y9	Z9	X10	Y10	Z10	X11	Y11	Z11	X12	Y12	Z12	X13	Y13	Z13	X14	Y14	Z14	X15	Y15	Z15	X16	Y16	Z16	X17	Y17	Z17	X18	Y18	Z18	X19	Y19	Z19	X20	Y20	Z20	X21	Y21	Z21	X22	Y22	Z22	X23	Y23	Z23	X24	Y24	Z24	X25	Y25	Z25	X26	Y26	Z26	X27	Y27	Z27	X28	Y28	Z28	X29	Y29	Z29	X30	Y30	Z30	X31	Y31	Z31	X32	Y32	Z32	X33	Y33	Z33	X34	Y34	Z34	X35	Y35	Z35	X36	Y36	Z36	X37	Y37	Z37	X38	Y38	Z38	X39	Y39	Z39	X40	Y40	Z40	X41	Y41	Z41	X42	Y42	Z42	X43	Y43	Z43	X44	Y44	Z44	X45	Y45	Z45	X46	Y46	Z46	X47	Y47	Z47	X48	Y48	Z48	X49	Y49	Z49	X50	Y50	Z50	X51	Y51	Z51	X52	Y52	Z52	X53	Y53	Z53	X54	Y54	Z54	X55	Y55	Z55	X56	Y56	Z56	X57	Y57	Z57	X58	Y58	Z58	X59	Y59	Z59	X60	Y60	Z60	

342	1.705	34.32617950439454	1227.614135742188	-919.1966552734377	-104.3308029174805	1114.488525390625	-983.8089599609377	-109.6514587402344	1115.711303710938	-838.833190917969	-162.5882415771485	1061.43359375	-909.2777099609377	-399.1067810058595	856.3450317382815	-916.2835693359377	-52.44184494018556	908.901550292969	-905.2987060546877	-39.91070556640626	972.7456665039065	-1077.889038085938	-116.3220138549805	912.335388183594	-1270.803588867188	-124.4328002929688	864.3319091796877	-1275.122314453125	-147.3604736328125	886.9187622070315	-1326.394409179688	-190.8721160888672	841.6621704101565	-1366.152099609375	-255.8756713867188	900.2192382812502	-1359.8984375	-406.6206359863282	760.5953369140626	-1145.301391601563	-390.1409301757814	691.8791503906251	-1184.772338867188	nan	nan	nan	-13.7913875579834	948.0463867187502	-738.6610107421876	-120.6315307617188	867.873962402344	-542.9221191406251	-143.443588256836	824.9475708007815	-555.2321166992189	-167.6916809082032	837.6760864257815	-501.5572814941407	-225.096176147461	796.049011230469	-479.0382080078126	-281.0035705566407	866.333435058594	-476.0808715820314	-460.8166503906251	743.7519531250001	-669.9888916015626	-430.926727294922	671.5191650390626	-653.9818115234376	nan	nan	nan	nan	nan	nan	nan	nan	nan	-499.1612243652345	793.1892700195315	-921.1136474609377	-522.6066284179689	782.5137329101565	-951.9300537109377	-533.8623657226564	779.8123779296877	-898.0548095703127	-407.8253479003907	588.2264404296876	-1172.70751953125	-328.5500183105469	584.0418090820314	-1200.076538085938	-302.1312561035157	622.5406494140626	-1183.396606445313	-297.0019531250001	535.2899780273439	-1218.351806640625	-159.1687469482422	484.0750427246095	-1249.09521484375	-115.3727722167969	443.540496826172	-1129.390380859375	-193.552719116211	270.8110351562501	-1190.714477539063	-263.4913330078126	258.1238708496094	-1249.376098632813	-231.980209350586	238.2395172119141	-1223.472534179688	-271.8848876953126	170.912338256836	-1188.698120117188	-387.1284790039064	102.2284927368164	-1214.347290039063	-441.6388549804689	48.75433349609376	-1157.900268554688	-226.8009643554688	58.12840270996095	-1193.541748046875	-235.897689819336	58.93596267700197	-1234.841064453125	-339.5423889160157	96.59793090820315	-1139.734497070313	-335.4231262207032	540.7608642578126	-617.0379638671876	-268.0980834960938	557.8328857421876	-599.4872436523439	-251.4037322998047	585.5507202148439	-611.3594970703126	-212.8533630371094	497.1393127441407	-584.8891601562501	-176.5016021728516	461.0334472656251	-571.7803955078126	-120.8732528686524	439.5845336914064	-686.4526367187501	-178.1366882324219	326.4626770019532	-582.0540771484376	-280.7383728027344	290.3051757812501	-573.2109985351564	-241.5140533447266	265.8276977539063	-584.1912231445314	-246.4280090332032	222.4582061767579	-623.6446533203126	-397.9290466308595	97.6867370605469	-614.9920654296876	-348.9813537597657	87.78726959228517	-692.5452880859376	-453.0236206054689	47.66389083862305	-679.8353271484376	-240.5835418701172	59.25066375732423	-597.5674438476564	-255.7287139892579	61.26646041870119	-562.9995727539064	-285.5718078613282	42.00470733642579	-520.9383544921876	
343	1.71	34.8025016784668	1226.318603515625	-919.1434326171877	-103.6178894042969	1113.04931640625	-983.738220214844	-109.0341720581055	1114.383911132813	-838.7337036132815	-162.3068084716797	1060.087768554688	-909.1806640625002	-398.6781616210939	855.6826782226565	-916.2646484375002	-52.00625610351564	907.5010986328127	-905.3164062500002	-39.25613403320313	971.5446777343752	-1077.885620117188	-115.5052108764649	910.7917480468752	-1270.628662109375	-124.1325149536133	863.0169677734377	-1275.08544921875	-146.8174896240235	885.449401855469	-1326.391357421875	-189.9632720947266	840.081481933594	-1365.978759765625	-255.1678771972657	898.805358886719	-1359.761596679688	-406.3551330566407	759.6871948242189	-1145.374755859375	-390.0767517089845	690.9076538085939	-1184.751342773438	nan	nan	nan	-13.12939739227295	946.5715332031252	-738.5484619140626	-120.0365219116211	866.257263183594	-542.9306640625001	-142.8357849121094	823.3233032226565	-555.1879882812501	-167.2016143798828	835.9700927734377	-501.5108337402345	-224.4029693603516	794.7177734375002	-479.0545654296876	-280.3341979980469	864.8317871093752	-475.8744506835939	-460.521942138672	743.0046386718751	-670.0074462890626	-430.8056640625001	670.7362060546876	-654.0377807617189	nan	nan	nan	nan	nan	nan	nan	nan	nan	-498.9987792968751	792.469665527344	-921.1114501953127	-522.4550170898439	781.7734985351565	-951.9100341796877	-533.4825439453126	779.0582275390627	-898.0874023437502	-408.0435485839845	587.6551513671876	-1172.820922851563	-328.5748596191407	583.7213134765626	-1200.202392578125	-302.1085510253907	622.2592163085939	-1183.330444335938	-297.0354003906251	534.9390258789064	-1218.342407226563	-160.1720275878907	484.4428100585939	-1249.661743164063	-115.1095504760742	443.412322998047	-1129.528564453125	-193.5458679199219	270.7554321289063	-1190.855590820313	-263.4978332519532	258.1377868652344	-1249.440551757813	-231.8295898437501	238.2235565185547	-1223.578857421875	-271.8399963378907	170.9342498779297	-1188.696533203125	-387.2633666992189	102.3659439086914	-1214.320190429688	-441.613739013672	48.80067062377931	-1157.833251953125	-227.3222045898438	56.9457359313965	-1193.183349609375	-235.6738891601563	59.00590896606447	-1234.616455078125	-339.4459228515626	96.52060699462893	-1139.740234375	-335.2083740234376	540.4061279296876	-616.9888305664064	-267.8191223144532	557.5382690429689	-599.4784545898439	-251.2651367187501	585.1893310546876	-611.4264526367189	-212.5794372558594	496.8731384277345	-584.9501953125001	-176.0871276855469	460.769744873047	-571.8255004882814	-120.4657287597657	439.3161926269532	-686.3919067382814	-177.9499664306641	326.3470153808594	-582.0850219726564	-280.5271911621094	290.2239074707032	-573.1903686523439	-241.3623199462891	265.6540832519532	-584.2369384765626	-246.2645111083985	222.3498077392579	-623.6641845703126	-397.826629638672	97.78371429443362	-615.0393676757814	-349.1391296386719	87.7854690551758	-692.5844726562501	-452.972381591797	47.68575286865235	-679.9205322265626	-240.5318908691407	59.26868820190431	-597.4929809570314	-255.7083435058594	61.20994949340822	-563.0749511718751	-285.5615539550782	42.01736450195313	-520.9288940429689	
344	1.715	35.72269439697266	1224.629516601563	-918.8953247070315	-103.0683822631836	1111.686767578125	-983.5396728515627	-108.4503479003907	1113.077392578125	-838.6365356445315	-161.4576568603516	1059.09228515625	-908.9824218750002	-398.2478637695314	854.905212402344	-916.2767333984377	-51.47833251953126	906.1272583007815	-905.1430664062502	-38.87075424194337	970.248474121094	-1077.89404296875	-114.7557525634766	909.2192382812502	-1270.530639648438	-123.4857864379883	861.5911254882815	-1274.858520507813	-145.7522430419922	883.8272705078127	-1326.170288085938	-189.4462127685547	838.711120605469	-1365.899169921875	-254.5496673583985	897.445739746094	-1359.760009765625	-406.4972229003907	759.8154907226564	-1145.51416015625	-389.7229919433595	689.8717651367189	-1184.644165039063	nan	nan	nan	-12.56503105163575	945.1290283203127	-738.5799560546876	-119.3330078125	864.633239746094	-542.9555664062501	-142.1938781738282	821.760925292969	-555.2620849609376	-166.8247222900391	834.033142089844	-501.3996582031251	-223.9468231201172	793.1896972656252	-478.9830627441407	-279.6190795898438	863.4671630859377	-475.6585388183595	-460.3007202148439	742.3505249023439	-669.8606567382814	-430.5279235839845	669.8791503906251	-653.9746093750001	nan	nan	nan	nan	nan	nan	nan	nan	nan	-498.7495422363282	791.6501464843752	-921.180358886719	-522.1365356445314	780.9924316406252	-951.910827636719	-533.3581542968751	778.1968383789065	-898.084899902344	-407.9642639160157	587.3175659179689	-1172.9453125	-328.5452575683594	583.1187133789064	-1200.203979492188	-302.1042480468751	621.8045654296876	-1183.389526367188	-296.8431396484376	534.5964355468751	-1218.42041015625	-160.0102996826172	484.4011230468751	-1249.776489257813	-114.8241882324219	443.2532958984376	-1129.735473632813	-193.3993225097657	271.0821533203126	-1191.29736328125	-263.3694763183594	258.0045166015626	-1249.464477539063	-231.4793395996094	238.3516082763672	-1223.973022460938	-271.7866210937501	170.8707885742188	-1188.686889648438	-387.1541442871095	102.2808456420899	-1214.247802734375	-441.640594482422	48.81736755371095	-1157.756958007813	-226.8484497070313	58.07775497436525	-1193.572631835938	-235.6310424804688	58.96265029907228	-1234.571899414063	-339.4471435546876	96.50867462158206	-1139.72216796875	-334.8995361328126	539.9757690429689	-617.0017700195314	-267.5237121582032	557.2304687500001	-599.4859008789064	-251.0994110107422	584.8930053710939	-611.4996337890626	-212.2832031250001	496.560516357422	-584.9727783203126	-175.7486267089844	460.5122680664064	-571.7850952148439	-119.9939727783203	439.1166992187501	-686.4097900390626	-177.7062377929688	326.1833190917969	-582.1457519531251	-280.2712402343751	290.0821838378907	-573.2891235351564	-241.1052246093751	265.6136474609376	-584.2940063476564	-246.0708465576172	222.1634063720704	-623.6789550781251	-397.7666931152345	97.83732604980472	-615.0689697265626	-349.0402221679688	87.64805603027345	-692.6478271484376	-453.0834350585939	47.87414169311524	-679.9121093750001	-240.4476928710938	59.40471267700197	-597.5053100585939	-255.7048339843751	61.2106285095215	-563.0377807617189	-285.5916137695313	42.02739715576173	-520.9585571289064	
345	1.72	36.25596237182618	1223.539428710938	-918.9097900390627	-102.4979629516602	1110.2666015625	-983.3210449218752	-107.8302841186524	1111.869384765625	-838.4884033203127	-160.8304748535157	1058.051513671875	-908.889343261719	-397.8476562500001	853.8428344726565	-916.320739746094	-50.85290908813478	904.7602539062502	-905.0563964843752	-38.0891456604004	968.884460449219	-1077.640502929688	-114.3384017944336	907.9962158203127	-1270.557373046875	-122.6570434570313	860.1848144531252	-1274.77294921875	-145.3094177246094	882.4067382812502	-1326.18115234375	-188.6153106689453	837.126647949219	-1365.677001953125	-253.5918121337891	896.0957031250002	-1359.652954101563	-406.5702514648439	758.9168090820314	-1145.5849609375	-389.7511596679689	689.3380126953126	-1184.408813476563	nan	nan	nan	-11.97682571411133	943.866149902344	-738.3910522460939	-118.6731185913086	863.2485351562502	-542.9490356445314	-141.6615295410157	820.2784423828127	-555.2091064453126	-166.2352752685547	832.3326416015627	-501.380584716797	-223.3377075195313	791.5830688476565	-479.0086669921876	-278.9393310546876	862.2400512695315	-475.5972900390626	-460.0332641601564	741.6937255859376	-669.8427734375001	-430.3991088867189	669.1259765625001	-654.1213378906251	nan	nan	nan	nan	nan	nan	nan	nan	nan	-498.3856201171876	790.8449707031252	-921.1895751953127	-521.8796997070314	780.1116943359377	-951.898864746094	-533.1557617187501	777.4290771484377	-898.1083984375002	-407.9654541015626	586.6585693359376	-1173.0322265625	-328.6141052246094	582.3702392578126	-1200.107543945313	-302.2940368652344	621.4760742187501	-1183.450561523438	-296.9785156250001	534.2709960937501	-1218.515625	-159.9073638916016	484.1829223632814	-1249.952392578125	-114.6411819458008	443.0936279296876	-1130.059692382813	-193.2006988525391	270.9737548828126	-1191.440063476563	-263.3959350585938	258.0601806640626	-1249.436767578125	-231.3485260009766	238.2831115722657	-1223.97021484375	-271.7358093261719	170.8966979980469	-1188.73681640625	-387.0669250488282	102.3758087158203	-1214.148193359375	-441.5775451660157	48.85042572021486	-1157.747924804688	-226.8707580566407	58.22339248657228	-1193.583129882813	-235.6127319335938	58.97737121582033	-1234.7060546875	-339.3566284179688	96.50531005859378	-1139.642456054688	-334.6929626464844	539.4700317382814	-616.9910278320314	-267.2339477539063	556.8925170898439	-599.4780883789064	-250.8719177246094	584.5756225585939	-611.5602416992189	-211.9125213623047	496.2885742187501	-584.9155883789064	-175.3805084228516	460.3575744628907	-571.8097534179689	-119.6384658813477	438.9013061523439	-686.4237060546876	-177.469467163086	325.9388732910157	-582.2149658203126	-279.9997863769532	289.9478454589844	-573.3424072265626	-240.9160156250001	265.5306701660157	-584.3092041015626	-245.7381896972657	222.1977844238282	-623.5808715820314	-397.7363891601564	97.84764099121097	-615.1604614257814	-349.0278930664063	87.6759719848633	-692.7240600585939	-453.047821044922	47.91937255859376	-679.9451904296876	-240.4042663574219	59.41406250000001	-597.5172119140626	-255.6781463623047	61.2385597229004	-563.0720825195314	-285.5867309570313	42.07788085937501	-521.0135498046876	
